<mxfile host="app.diagrams.net" modified="2022-09-03T15:30:57.730Z" agent="5.0 (Windows)" etag="g_SUtrjqJYSII99kN6lv" version="20.2.7" type="github">
  <diagram id="C5RBs43oDa-KdzZeNtuy" name="Page-1">
    <mxGraphModel dx="1192" dy="1692" grid="1" gridSize="10" guides="1" tooltips="1" connect="1" arrows="1" fold="1" page="1" pageScale="1" pageWidth="827" pageHeight="1169" math="0" shadow="0">
      <root>
        <mxCell id="WIyWlLk6GJQsqaUBKTNV-0" />
        <mxCell id="WIyWlLk6GJQsqaUBKTNV-1" parent="WIyWlLk6GJQsqaUBKTNV-0" />
        <mxCell id="WIyWlLk6GJQsqaUBKTNV-2" value="" style="rounded=0;html=1;jettySize=auto;orthogonalLoop=1;fontSize=11;endArrow=block;endFill=0;endSize=8;strokeWidth=1;shadow=0;labelBackgroundColor=none;edgeStyle=orthogonalEdgeStyle;" parent="WIyWlLk6GJQsqaUBKTNV-1" source="WIyWlLk6GJQsqaUBKTNV-3" target="WIyWlLk6GJQsqaUBKTNV-6" edge="1">
          <mxGeometry relative="1" as="geometry" />
        </mxCell>
        <mxCell id="RE7xwJCLeJIO6roD6Kax-3" value="" style="edgeStyle=orthogonalEdgeStyle;rounded=0;orthogonalLoop=1;jettySize=auto;html=1;" edge="1" parent="WIyWlLk6GJQsqaUBKTNV-1" source="WIyWlLk6GJQsqaUBKTNV-3" target="RE7xwJCLeJIO6roD6Kax-2">
          <mxGeometry relative="1" as="geometry" />
        </mxCell>
        <mxCell id="RE7xwJCLeJIO6roD6Kax-6" value="" style="edgeStyle=orthogonalEdgeStyle;rounded=0;orthogonalLoop=1;jettySize=auto;html=1;" edge="1" parent="WIyWlLk6GJQsqaUBKTNV-1" source="WIyWlLk6GJQsqaUBKTNV-3" target="RE7xwJCLeJIO6roD6Kax-4">
          <mxGeometry relative="1" as="geometry" />
        </mxCell>
        <mxCell id="RE7xwJCLeJIO6roD6Kax-12" style="edgeStyle=orthogonalEdgeStyle;rounded=0;orthogonalLoop=1;jettySize=auto;html=1;exitX=0;exitY=0.25;exitDx=0;exitDy=0;" edge="1" parent="WIyWlLk6GJQsqaUBKTNV-1" source="WIyWlLk6GJQsqaUBKTNV-3" target="RE7xwJCLeJIO6roD6Kax-11">
          <mxGeometry relative="1" as="geometry">
            <mxPoint x="220" y="130" as="targetPoint" />
            <Array as="points">
              <mxPoint x="270" y="200" />
              <mxPoint x="110" y="200" />
            </Array>
          </mxGeometry>
        </mxCell>
        <mxCell id="WIyWlLk6GJQsqaUBKTNV-3" value="Welcome Page" style="rounded=1;whiteSpace=wrap;html=1;fontSize=12;glass=0;strokeWidth=1;shadow=0;" parent="WIyWlLk6GJQsqaUBKTNV-1" vertex="1">
          <mxGeometry x="270" y="230" width="120" height="40" as="geometry" />
        </mxCell>
        <mxCell id="WIyWlLk6GJQsqaUBKTNV-4" value="Yes" style="rounded=0;html=1;jettySize=auto;orthogonalLoop=1;fontSize=11;endArrow=block;endFill=0;endSize=8;strokeWidth=1;shadow=0;labelBackgroundColor=none;edgeStyle=orthogonalEdgeStyle;entryX=0.425;entryY=0.008;entryDx=0;entryDy=0;entryPerimeter=0;" parent="WIyWlLk6GJQsqaUBKTNV-1" source="WIyWlLk6GJQsqaUBKTNV-6" target="RE7xwJCLeJIO6roD6Kax-0" edge="1">
          <mxGeometry y="20" relative="1" as="geometry">
            <mxPoint as="offset" />
            <mxPoint x="230" y="460" as="targetPoint" />
            <Array as="points">
              <mxPoint x="330" y="420" />
              <mxPoint x="281" y="420" />
              <mxPoint x="281" y="481" />
            </Array>
          </mxGeometry>
        </mxCell>
        <mxCell id="WIyWlLk6GJQsqaUBKTNV-5" value="No" style="edgeStyle=orthogonalEdgeStyle;rounded=0;html=1;jettySize=auto;orthogonalLoop=1;fontSize=11;endArrow=block;endFill=0;endSize=8;strokeWidth=1;shadow=0;labelBackgroundColor=none;entryX=1;entryY=0.75;entryDx=0;entryDy=0;" parent="WIyWlLk6GJQsqaUBKTNV-1" source="WIyWlLk6GJQsqaUBKTNV-6" target="RE7xwJCLeJIO6roD6Kax-0" edge="1">
          <mxGeometry x="-0.2" y="20" relative="1" as="geometry">
            <mxPoint as="offset" />
            <mxPoint x="360" y="590" as="targetPoint" />
            <Array as="points">
              <mxPoint x="460" y="360" />
              <mxPoint x="460" y="450" />
              <mxPoint x="390" y="450" />
              <mxPoint x="390" y="520" />
              <mxPoint x="330" y="520" />
            </Array>
          </mxGeometry>
        </mxCell>
        <mxCell id="RE7xwJCLeJIO6roD6Kax-40" style="edgeStyle=orthogonalEdgeStyle;rounded=0;orthogonalLoop=1;jettySize=auto;html=1;exitX=1;exitY=0;exitDx=0;exitDy=0;entryX=0;entryY=0.5;entryDx=0;entryDy=0;entryPerimeter=0;" edge="1" parent="WIyWlLk6GJQsqaUBKTNV-1" source="WIyWlLk6GJQsqaUBKTNV-6" target="RE7xwJCLeJIO6roD6Kax-35">
          <mxGeometry relative="1" as="geometry">
            <mxPoint x="440" y="100" as="targetPoint" />
          </mxGeometry>
        </mxCell>
        <mxCell id="RE7xwJCLeJIO6roD6Kax-51" style="edgeStyle=orthogonalEdgeStyle;rounded=0;orthogonalLoop=1;jettySize=auto;html=1;exitX=0;exitY=0.5;exitDx=0;exitDy=0;entryX=1;entryY=0.5;entryDx=0;entryDy=0;" edge="1" parent="WIyWlLk6GJQsqaUBKTNV-1" source="WIyWlLk6GJQsqaUBKTNV-6" target="RE7xwJCLeJIO6roD6Kax-50">
          <mxGeometry relative="1" as="geometry" />
        </mxCell>
        <mxCell id="WIyWlLk6GJQsqaUBKTNV-6" value="Sign Up/SignIn" style="rhombus;whiteSpace=wrap;html=1;shadow=0;fontFamily=Helvetica;fontSize=12;align=center;strokeWidth=1;spacing=6;spacingTop=-4;" parent="WIyWlLk6GJQsqaUBKTNV-1" vertex="1">
          <mxGeometry x="280" y="330" width="100" height="80" as="geometry" />
        </mxCell>
        <mxCell id="RE7xwJCLeJIO6roD6Kax-9" style="edgeStyle=orthogonalEdgeStyle;rounded=0;orthogonalLoop=1;jettySize=auto;html=1;entryX=1.008;entryY=0.4;entryDx=0;entryDy=0;entryPerimeter=0;exitX=0.657;exitY=0.007;exitDx=0;exitDy=0;exitPerimeter=0;" edge="1" parent="WIyWlLk6GJQsqaUBKTNV-1" source="RE7xwJCLeJIO6roD6Kax-58" target="RE7xwJCLeJIO6roD6Kax-4">
          <mxGeometry relative="1" as="geometry">
            <mxPoint x="460" y="140" as="targetPoint" />
            <mxPoint x="410" y="610" as="sourcePoint" />
            <Array as="points">
              <mxPoint x="412" y="590" />
              <mxPoint x="410" y="590" />
              <mxPoint x="410" y="490" />
              <mxPoint x="480" y="490" />
              <mxPoint x="480" y="140" />
              <mxPoint x="361" y="140" />
            </Array>
          </mxGeometry>
        </mxCell>
        <mxCell id="RE7xwJCLeJIO6roD6Kax-10" style="edgeStyle=orthogonalEdgeStyle;rounded=0;orthogonalLoop=1;jettySize=auto;html=1;" edge="1" parent="WIyWlLk6GJQsqaUBKTNV-1" target="RE7xwJCLeJIO6roD6Kax-2">
          <mxGeometry relative="1" as="geometry">
            <mxPoint x="10" y="515" as="sourcePoint" />
            <Array as="points">
              <mxPoint x="50" y="515" />
              <mxPoint x="50" y="240" />
            </Array>
          </mxGeometry>
        </mxCell>
        <mxCell id="RE7xwJCLeJIO6roD6Kax-13" style="edgeStyle=orthogonalEdgeStyle;rounded=0;orthogonalLoop=1;jettySize=auto;html=1;exitX=0;exitY=0.25;exitDx=0;exitDy=0;" edge="1" parent="WIyWlLk6GJQsqaUBKTNV-1" source="RE7xwJCLeJIO6roD6Kax-58">
          <mxGeometry relative="1" as="geometry">
            <mxPoint x="40" y="140" as="targetPoint" />
            <Array as="points">
              <mxPoint x="320" y="632" />
              <mxPoint x="10" y="632" />
              <mxPoint x="10" y="140" />
              <mxPoint x="60" y="140" />
            </Array>
          </mxGeometry>
        </mxCell>
        <mxCell id="RE7xwJCLeJIO6roD6Kax-29" style="edgeStyle=orthogonalEdgeStyle;rounded=0;orthogonalLoop=1;jettySize=auto;html=1;exitX=1;exitY=0.25;exitDx=0;exitDy=0;" edge="1" parent="WIyWlLk6GJQsqaUBKTNV-1" source="RE7xwJCLeJIO6roD6Kax-58" target="RE7xwJCLeJIO6roD6Kax-21">
          <mxGeometry relative="1" as="geometry">
            <mxPoint x="660" y="380" as="targetPoint" />
            <Array as="points">
              <mxPoint x="460" y="630" />
              <mxPoint x="500" y="630" />
              <mxPoint x="500" y="600" />
              <mxPoint x="640" y="600" />
              <mxPoint x="640" y="380" />
              <mxPoint x="620" y="380" />
            </Array>
          </mxGeometry>
        </mxCell>
        <mxCell id="RE7xwJCLeJIO6roD6Kax-46" style="edgeStyle=orthogonalEdgeStyle;rounded=0;orthogonalLoop=1;jettySize=auto;html=1;exitX=0;exitY=0;exitDx=0;exitDy=0;entryX=1;entryY=0.25;entryDx=0;entryDy=0;" edge="1" parent="WIyWlLk6GJQsqaUBKTNV-1" source="RE7xwJCLeJIO6roD6Kax-58" target="RE7xwJCLeJIO6roD6Kax-45">
          <mxGeometry relative="1" as="geometry">
            <Array as="points">
              <mxPoint x="320" y="610" />
              <mxPoint x="280" y="610" />
              <mxPoint x="280" y="620" />
              <mxPoint x="160" y="620" />
              <mxPoint x="160" y="570" />
            </Array>
          </mxGeometry>
        </mxCell>
        <mxCell id="RE7xwJCLeJIO6roD6Kax-60" style="edgeStyle=orthogonalEdgeStyle;rounded=0;orthogonalLoop=1;jettySize=auto;html=1;exitX=0.75;exitY=1;exitDx=0;exitDy=0;entryX=0.116;entryY=-0.082;entryDx=0;entryDy=0;entryPerimeter=0;" edge="1" parent="WIyWlLk6GJQsqaUBKTNV-1" source="RE7xwJCLeJIO6roD6Kax-0" target="RE7xwJCLeJIO6roD6Kax-58">
          <mxGeometry relative="1" as="geometry" />
        </mxCell>
        <mxCell id="RE7xwJCLeJIO6roD6Kax-0" value="DashBoard" style="rounded=0;whiteSpace=wrap;html=1;" vertex="1" parent="WIyWlLk6GJQsqaUBKTNV-1">
          <mxGeometry x="190" y="485" width="120" height="70" as="geometry" />
        </mxCell>
        <mxCell id="RE7xwJCLeJIO6roD6Kax-2" value="About Us (Employee Introduction)" style="rounded=0;whiteSpace=wrap;html=1;" vertex="1" parent="WIyWlLk6GJQsqaUBKTNV-1">
          <mxGeometry x="90" y="210" width="80" height="60" as="geometry" />
        </mxCell>
        <mxCell id="RE7xwJCLeJIO6roD6Kax-4" value="Rates/Charges" style="rounded=0;whiteSpace=wrap;html=1;" vertex="1" parent="WIyWlLk6GJQsqaUBKTNV-1">
          <mxGeometry x="230" y="120" width="130" height="60" as="geometry" />
        </mxCell>
        <mxCell id="RE7xwJCLeJIO6roD6Kax-11" value="About Us (Services)" style="rounded=0;whiteSpace=wrap;html=1;" vertex="1" parent="WIyWlLk6GJQsqaUBKTNV-1">
          <mxGeometry x="50" y="110" width="120" height="60" as="geometry" />
        </mxCell>
        <mxCell id="RE7xwJCLeJIO6roD6Kax-23" value="" style="edgeStyle=orthogonalEdgeStyle;rounded=0;orthogonalLoop=1;jettySize=auto;html=1;" edge="1" parent="WIyWlLk6GJQsqaUBKTNV-1" source="RE7xwJCLeJIO6roD6Kax-14" target="RE7xwJCLeJIO6roD6Kax-21">
          <mxGeometry relative="1" as="geometry" />
        </mxCell>
        <mxCell id="RE7xwJCLeJIO6roD6Kax-30" value="" style="edgeStyle=orthogonalEdgeStyle;rounded=0;orthogonalLoop=1;jettySize=auto;html=1;" edge="1" parent="WIyWlLk6GJQsqaUBKTNV-1" source="RE7xwJCLeJIO6roD6Kax-14" target="RE7xwJCLeJIO6roD6Kax-15">
          <mxGeometry relative="1" as="geometry" />
        </mxCell>
        <mxCell id="RE7xwJCLeJIO6roD6Kax-14" value="Dashboard (Employee)" style="rounded=0;whiteSpace=wrap;html=1;" vertex="1" parent="WIyWlLk6GJQsqaUBKTNV-1">
          <mxGeometry x="510" y="460" width="120" height="60" as="geometry" />
        </mxCell>
        <mxCell id="RE7xwJCLeJIO6roD6Kax-31" style="edgeStyle=orthogonalEdgeStyle;rounded=0;orthogonalLoop=1;jettySize=auto;html=1;exitX=0.5;exitY=1;exitDx=0;exitDy=0;entryX=0;entryY=0.25;entryDx=0;entryDy=0;" edge="1" parent="WIyWlLk6GJQsqaUBKTNV-1" source="RE7xwJCLeJIO6roD6Kax-15" target="RE7xwJCLeJIO6roD6Kax-16">
          <mxGeometry relative="1" as="geometry">
            <mxPoint x="719.7647058823529" y="600" as="targetPoint" />
          </mxGeometry>
        </mxCell>
        <mxCell id="RE7xwJCLeJIO6roD6Kax-32" style="edgeStyle=orthogonalEdgeStyle;rounded=0;orthogonalLoop=1;jettySize=auto;html=1;exitX=0.25;exitY=1;exitDx=0;exitDy=0;entryX=0;entryY=0.5;entryDx=0;entryDy=0;" edge="1" parent="WIyWlLk6GJQsqaUBKTNV-1" source="RE7xwJCLeJIO6roD6Kax-15" target="RE7xwJCLeJIO6roD6Kax-17">
          <mxGeometry relative="1" as="geometry">
            <mxPoint x="699.7647058823529" y="690" as="targetPoint" />
            <Array as="points">
              <mxPoint x="710" y="530" />
              <mxPoint x="710" y="685" />
            </Array>
          </mxGeometry>
        </mxCell>
        <mxCell id="RE7xwJCLeJIO6roD6Kax-33" style="edgeStyle=orthogonalEdgeStyle;rounded=0;orthogonalLoop=1;jettySize=auto;html=1;exitX=0.25;exitY=1;exitDx=0;exitDy=0;entryX=0;entryY=0.5;entryDx=0;entryDy=0;" edge="1" parent="WIyWlLk6GJQsqaUBKTNV-1" source="RE7xwJCLeJIO6roD6Kax-15" target="RE7xwJCLeJIO6roD6Kax-18">
          <mxGeometry relative="1" as="geometry">
            <mxPoint x="700" y="780" as="targetPoint" />
          </mxGeometry>
        </mxCell>
        <mxCell id="RE7xwJCLeJIO6roD6Kax-15" value="Transaction" style="rounded=0;whiteSpace=wrap;html=1;" vertex="1" parent="WIyWlLk6GJQsqaUBKTNV-1">
          <mxGeometry x="670" y="470" width="120" height="60" as="geometry" />
        </mxCell>
        <mxCell id="RE7xwJCLeJIO6roD6Kax-16" value="Withdraw" style="rounded=0;whiteSpace=wrap;html=1;" vertex="1" parent="WIyWlLk6GJQsqaUBKTNV-1">
          <mxGeometry x="750" y="580" width="60" height="40" as="geometry" />
        </mxCell>
        <mxCell id="RE7xwJCLeJIO6roD6Kax-17" value="Deposit" style="rounded=0;whiteSpace=wrap;html=1;" vertex="1" parent="WIyWlLk6GJQsqaUBKTNV-1">
          <mxGeometry x="750" y="660" width="60" height="50" as="geometry" />
        </mxCell>
        <mxCell id="RE7xwJCLeJIO6roD6Kax-18" value="Transfer" style="rounded=0;whiteSpace=wrap;html=1;" vertex="1" parent="WIyWlLk6GJQsqaUBKTNV-1">
          <mxGeometry x="750" y="750" width="60" height="50" as="geometry" />
        </mxCell>
        <mxCell id="RE7xwJCLeJIO6roD6Kax-42" style="edgeStyle=orthogonalEdgeStyle;rounded=0;orthogonalLoop=1;jettySize=auto;html=1;exitX=0.5;exitY=0;exitDx=0;exitDy=0;exitPerimeter=0;entryX=1;entryY=0.5;entryDx=0;entryDy=0;" edge="1" parent="WIyWlLk6GJQsqaUBKTNV-1" source="RE7xwJCLeJIO6roD6Kax-19" target="RE7xwJCLeJIO6roD6Kax-37">
          <mxGeometry relative="1" as="geometry" />
        </mxCell>
        <mxCell id="RE7xwJCLeJIO6roD6Kax-19" value="Transaction Log Datatbase" style="shape=note;whiteSpace=wrap;html=1;backgroundOutline=1;darkOpacity=0.05;" vertex="1" parent="WIyWlLk6GJQsqaUBKTNV-1">
          <mxGeometry x="730" y="260" width="80" height="100" as="geometry" />
        </mxCell>
        <mxCell id="RE7xwJCLeJIO6roD6Kax-22" value="" style="edgeStyle=orthogonalEdgeStyle;rounded=0;orthogonalLoop=1;jettySize=auto;html=1;" edge="1" parent="WIyWlLk6GJQsqaUBKTNV-1" source="RE7xwJCLeJIO6roD6Kax-21" target="RE7xwJCLeJIO6roD6Kax-19">
          <mxGeometry relative="1" as="geometry" />
        </mxCell>
        <mxCell id="RE7xwJCLeJIO6roD6Kax-21" value="Transaction Logs" style="rounded=0;whiteSpace=wrap;html=1;" vertex="1" parent="WIyWlLk6GJQsqaUBKTNV-1">
          <mxGeometry x="520" y="300" width="120" height="60" as="geometry" />
        </mxCell>
        <mxCell id="RE7xwJCLeJIO6roD6Kax-26" value="Can view all " style="text;html=1;align=center;verticalAlign=middle;resizable=0;points=[];autosize=1;strokeColor=none;fillColor=none;" vertex="1" parent="WIyWlLk6GJQsqaUBKTNV-1">
          <mxGeometry x="490" y="370" width="90" height="30" as="geometry" />
        </mxCell>
        <mxCell id="RE7xwJCLeJIO6roD6Kax-28" value="&lt;div&gt;can view only &lt;br&gt;&lt;/div&gt;&lt;div&gt;matching account no&lt;/div&gt;" style="text;html=1;align=center;verticalAlign=middle;resizable=0;points=[];autosize=1;strokeColor=none;fillColor=none;" vertex="1" parent="WIyWlLk6GJQsqaUBKTNV-1">
          <mxGeometry x="490" y="555" width="130" height="40" as="geometry" />
        </mxCell>
        <mxCell id="RE7xwJCLeJIO6roD6Kax-35" value="&lt;div&gt;Employee&lt;/div&gt;&lt;div&gt;Database &lt;br&gt;&lt;/div&gt;&lt;div&gt;(Name, Designation&lt;/div&gt;&lt;div&gt;Password)&lt;br&gt;&lt;/div&gt;" style="shape=note;whiteSpace=wrap;html=1;backgroundOutline=1;darkOpacity=0.05;" vertex="1" parent="WIyWlLk6GJQsqaUBKTNV-1">
          <mxGeometry x="540" y="130" width="80" height="100" as="geometry" />
        </mxCell>
        <mxCell id="RE7xwJCLeJIO6roD6Kax-36" value="Attributes" style="swimlane;fontStyle=0;childLayout=stackLayout;horizontal=1;startSize=30;horizontalStack=0;resizeParent=1;resizeParentMax=0;resizeLast=0;collapsible=1;marginBottom=0;" vertex="1" parent="WIyWlLk6GJQsqaUBKTNV-1">
          <mxGeometry x="650" y="40" width="140" height="100" as="geometry" />
        </mxCell>
        <mxCell id="RE7xwJCLeJIO6roD6Kax-37" value="    AccountNo, Name, &#xa;&#xa;Date,Employee,  Amount,&#xa;Type of Trabnsaction&#xa;" style="text;strokeColor=none;fillColor=none;align=left;verticalAlign=middle;spacingLeft=4;spacingRight=4;overflow=hidden;points=[[0,0.5],[1,0.5]];portConstraint=eastwest;rotatable=0;" vertex="1" parent="RE7xwJCLeJIO6roD6Kax-36">
          <mxGeometry y="30" width="140" height="70" as="geometry" />
        </mxCell>
        <mxCell id="RE7xwJCLeJIO6roD6Kax-41" value="&lt;div&gt;Client Database(&lt;/div&gt;&lt;div&gt;Account&lt;/div&gt;&lt;div&gt;Name,&lt;/div&gt;&lt;div&gt;Password,&lt;/div&gt;&lt;div&gt;Account Type,Balance,Minimum Balance&lt;br&gt;&lt;/div&gt;" style="shape=note;whiteSpace=wrap;html=1;backgroundOutline=1;darkOpacity=0.05;" vertex="1" parent="WIyWlLk6GJQsqaUBKTNV-1">
          <mxGeometry x="374" y="10" width="126" height="100" as="geometry" />
        </mxCell>
        <mxCell id="RE7xwJCLeJIO6roD6Kax-43" style="edgeStyle=orthogonalEdgeStyle;rounded=0;orthogonalLoop=1;jettySize=auto;html=1;exitX=0;exitY=0;exitDx=0;exitDy=0;entryX=0.204;entryY=1.031;entryDx=0;entryDy=0;entryPerimeter=0;" edge="1" parent="WIyWlLk6GJQsqaUBKTNV-1" source="WIyWlLk6GJQsqaUBKTNV-6" target="RE7xwJCLeJIO6roD6Kax-41">
          <mxGeometry relative="1" as="geometry">
            <mxPoint x="400" y="280" as="targetPoint" />
            <Array as="points">
              <mxPoint x="305" y="310" />
              <mxPoint x="400" y="310" />
            </Array>
          </mxGeometry>
        </mxCell>
        <mxCell id="RE7xwJCLeJIO6roD6Kax-54" value="" style="edgeStyle=orthogonalEdgeStyle;rounded=0;orthogonalLoop=1;jettySize=auto;html=1;" edge="1" parent="WIyWlLk6GJQsqaUBKTNV-1" source="RE7xwJCLeJIO6roD6Kax-45" target="RE7xwJCLeJIO6roD6Kax-47">
          <mxGeometry relative="1" as="geometry" />
        </mxCell>
        <mxCell id="RE7xwJCLeJIO6roD6Kax-45" value="Report Lost CheckBook/.PIN/Card" style="rounded=0;whiteSpace=wrap;html=1;fillColor=#0050ef;fontColor=#ffffff;strokeColor=#001DBC;" vertex="1" parent="WIyWlLk6GJQsqaUBKTNV-1">
          <mxGeometry x="30" y="555" width="120" height="60" as="geometry" />
        </mxCell>
        <mxCell id="RE7xwJCLeJIO6roD6Kax-47" value="Request Processing Table " style="shape=note;whiteSpace=wrap;html=1;backgroundOutline=1;darkOpacity=0.05;fillColor=#0050ef;strokeColor=#001DBC;fontColor=#ffffff;" vertex="1" parent="WIyWlLk6GJQsqaUBKTNV-1">
          <mxGeometry x="40" y="640" width="80" height="100" as="geometry" />
        </mxCell>
        <mxCell id="RE7xwJCLeJIO6roD6Kax-48" value="Forgot password Change Request Table" style="shape=note;whiteSpace=wrap;html=1;backgroundOutline=1;darkOpacity=0.05;" vertex="1" parent="WIyWlLk6GJQsqaUBKTNV-1">
          <mxGeometry x="150" y="-10" width="80" height="100" as="geometry" />
        </mxCell>
        <mxCell id="RE7xwJCLeJIO6roD6Kax-52" style="edgeStyle=orthogonalEdgeStyle;rounded=0;orthogonalLoop=1;jettySize=auto;html=1;exitX=0.5;exitY=0;exitDx=0;exitDy=0;" edge="1" parent="WIyWlLk6GJQsqaUBKTNV-1" source="RE7xwJCLeJIO6roD6Kax-50">
          <mxGeometry relative="1" as="geometry">
            <mxPoint x="190.35294117647072" y="90" as="targetPoint" />
          </mxGeometry>
        </mxCell>
        <mxCell id="RE7xwJCLeJIO6roD6Kax-50" value="Forgot&amp;nbsp; password Form" style="rounded=0;whiteSpace=wrap;html=1;" vertex="1" parent="WIyWlLk6GJQsqaUBKTNV-1">
          <mxGeometry x="130" y="340" width="120" height="60" as="geometry" />
        </mxCell>
        <mxCell id="RE7xwJCLeJIO6roD6Kax-57" value="" style="edgeStyle=orthogonalEdgeStyle;rounded=0;orthogonalLoop=1;jettySize=auto;html=1;" edge="1" parent="WIyWlLk6GJQsqaUBKTNV-1" source="RE7xwJCLeJIO6roD6Kax-55" target="RE7xwJCLeJIO6roD6Kax-0">
          <mxGeometry relative="1" as="geometry" />
        </mxCell>
        <mxCell id="RE7xwJCLeJIO6roD6Kax-62" style="edgeStyle=orthogonalEdgeStyle;rounded=0;orthogonalLoop=1;jettySize=auto;html=1;exitX=1;exitY=0.75;exitDx=0;exitDy=0;entryX=0;entryY=0.25;entryDx=0;entryDy=0;" edge="1" parent="WIyWlLk6GJQsqaUBKTNV-1" source="RE7xwJCLeJIO6roD6Kax-58" target="RE7xwJCLeJIO6roD6Kax-61">
          <mxGeometry relative="1" as="geometry" />
        </mxCell>
        <mxCell id="RE7xwJCLeJIO6roD6Kax-64" style="edgeStyle=orthogonalEdgeStyle;rounded=0;orthogonalLoop=1;jettySize=auto;html=1;exitX=1;exitY=1;exitDx=0;exitDy=0;entryX=0;entryY=0.5;entryDx=0;entryDy=0;" edge="1" parent="WIyWlLk6GJQsqaUBKTNV-1" source="RE7xwJCLeJIO6roD6Kax-58" target="RE7xwJCLeJIO6roD6Kax-63">
          <mxGeometry relative="1" as="geometry">
            <Array as="points">
              <mxPoint x="430" y="800" />
              <mxPoint x="430" y="840" />
              <mxPoint x="470" y="840" />
              <mxPoint x="470" y="770" />
              <mxPoint x="490" y="770" />
              <mxPoint x="490" y="750" />
            </Array>
          </mxGeometry>
        </mxCell>
        <mxCell id="RE7xwJCLeJIO6roD6Kax-66" style="edgeStyle=orthogonalEdgeStyle;rounded=0;orthogonalLoop=1;jettySize=auto;html=1;exitX=0.75;exitY=1;exitDx=0;exitDy=0;entryX=0;entryY=0.5;entryDx=0;entryDy=0;" edge="1" parent="WIyWlLk6GJQsqaUBKTNV-1" source="RE7xwJCLeJIO6roD6Kax-58" target="RE7xwJCLeJIO6roD6Kax-65">
          <mxGeometry relative="1" as="geometry">
            <mxPoint x="425.11764705882365" y="830" as="targetPoint" />
            <Array as="points">
              <mxPoint x="390" y="800" />
              <mxPoint x="390" y="890" />
              <mxPoint x="490" y="890" />
              <mxPoint x="490" y="830" />
            </Array>
          </mxGeometry>
        </mxCell>
        <mxCell id="RE7xwJCLeJIO6roD6Kax-69" style="edgeStyle=orthogonalEdgeStyle;rounded=0;orthogonalLoop=1;jettySize=auto;html=1;exitX=0.5;exitY=1;exitDx=0;exitDy=0;entryX=0;entryY=0.5;entryDx=0;entryDy=0;" edge="1" parent="WIyWlLk6GJQsqaUBKTNV-1" source="RE7xwJCLeJIO6roD6Kax-58" target="RE7xwJCLeJIO6roD6Kax-67">
          <mxGeometry relative="1" as="geometry">
            <mxPoint x="430" y="930" as="targetPoint" />
            <Array as="points">
              <mxPoint x="380" y="800" />
              <mxPoint x="380" y="910" />
            </Array>
          </mxGeometry>
        </mxCell>
        <mxCell id="RE7xwJCLeJIO6roD6Kax-79" style="edgeStyle=orthogonalEdgeStyle;rounded=0;orthogonalLoop=1;jettySize=auto;html=1;exitX=0.25;exitY=1;exitDx=0;exitDy=0;entryX=1;entryY=0.5;entryDx=0;entryDy=0;" edge="1" parent="WIyWlLk6GJQsqaUBKTNV-1" source="RE7xwJCLeJIO6roD6Kax-58" target="RE7xwJCLeJIO6roD6Kax-78">
          <mxGeometry relative="1" as="geometry" />
        </mxCell>
        <mxCell id="RE7xwJCLeJIO6roD6Kax-58" value="Menu" style="swimlane;" vertex="1" parent="WIyWlLk6GJQsqaUBKTNV-1">
          <mxGeometry x="320" y="620" width="140" height="180" as="geometry" />
        </mxCell>
        <mxCell id="RE7xwJCLeJIO6roD6Kax-77" value="&lt;div&gt;Change Password&lt;/div&gt;&lt;div&gt;Report Lost&lt;/div&gt;&lt;div&gt;Services&lt;/div&gt;&lt;div&gt;About Us&lt;/div&gt;&lt;div&gt;Transaction Logs&lt;/div&gt;&lt;div&gt;Cards&lt;/div&gt;&lt;div&gt;Edit Info&lt;/div&gt;&lt;div&gt;Close Account&lt;/div&gt;&lt;div&gt;Logout&lt;br&gt;&lt;/div&gt;" style="text;html=1;align=center;verticalAlign=middle;resizable=0;points=[];autosize=1;strokeColor=none;fillColor=none;" vertex="1" parent="RE7xwJCLeJIO6roD6Kax-58">
          <mxGeometry y="30" width="120" height="140" as="geometry" />
        </mxCell>
        <mxCell id="RE7xwJCLeJIO6roD6Kax-73" style="edgeStyle=orthogonalEdgeStyle;rounded=0;orthogonalLoop=1;jettySize=auto;html=1;exitX=0;exitY=1;exitDx=0;exitDy=0;entryX=0;entryY=0;entryDx=120;entryDy=25;entryPerimeter=0;" edge="1" parent="WIyWlLk6GJQsqaUBKTNV-1" source="RE7xwJCLeJIO6roD6Kax-55" target="RE7xwJCLeJIO6roD6Kax-72">
          <mxGeometry relative="1" as="geometry" />
        </mxCell>
        <mxCell id="RE7xwJCLeJIO6roD6Kax-55" value="Dashboard" style="swimlane;" vertex="1" parent="WIyWlLk6GJQsqaUBKTNV-1">
          <mxGeometry x="160" y="645" width="145" height="150" as="geometry" />
        </mxCell>
        <mxCell id="RE7xwJCLeJIO6roD6Kax-56" value="&lt;div&gt;Name&lt;/div&gt;&lt;div&gt;Account No&lt;/div&gt;&lt;div&gt;Account Type&lt;br&gt;&lt;/div&gt;&lt;div&gt;Balance&lt;/div&gt;&lt;div&gt;Mobile No&lt;/div&gt;&lt;div&gt;Address&lt;/div&gt;&lt;div&gt;Email Address&lt;br&gt;&lt;/div&gt;&lt;div&gt;&lt;br&gt;&lt;/div&gt;" style="text;html=1;align=center;verticalAlign=middle;resizable=0;points=[];autosize=1;strokeColor=none;fillColor=none;" vertex="1" parent="RE7xwJCLeJIO6roD6Kax-55">
          <mxGeometry x="19" y="20" width="100" height="130" as="geometry" />
        </mxCell>
        <mxCell id="RE7xwJCLeJIO6roD6Kax-61" value="Change Password" style="rounded=0;whiteSpace=wrap;html=1;" vertex="1" parent="WIyWlLk6GJQsqaUBKTNV-1">
          <mxGeometry x="500" y="645" width="120" height="60" as="geometry" />
        </mxCell>
        <mxCell id="RE7xwJCLeJIO6roD6Kax-63" value="Close Account" style="rounded=0;whiteSpace=wrap;html=1;" vertex="1" parent="WIyWlLk6GJQsqaUBKTNV-1">
          <mxGeometry x="500" y="720" width="120" height="60" as="geometry" />
        </mxCell>
        <mxCell id="RE7xwJCLeJIO6roD6Kax-65" value="Edit Info" style="rounded=0;whiteSpace=wrap;html=1;fillColor=#0050ef;fontColor=#ffffff;strokeColor=#001DBC;" vertex="1" parent="WIyWlLk6GJQsqaUBKTNV-1">
          <mxGeometry x="500" y="800" width="120" height="60" as="geometry" />
        </mxCell>
        <mxCell id="RE7xwJCLeJIO6roD6Kax-70" value="" style="edgeStyle=orthogonalEdgeStyle;rounded=0;orthogonalLoop=1;jettySize=auto;html=1;" edge="1" parent="WIyWlLk6GJQsqaUBKTNV-1" source="RE7xwJCLeJIO6roD6Kax-67" target="RE7xwJCLeJIO6roD6Kax-68">
          <mxGeometry relative="1" as="geometry" />
        </mxCell>
        <mxCell id="RE7xwJCLeJIO6roD6Kax-67" value="&lt;div&gt;Cards(Card No,Holder, Card Type, Issuen Date, Expiry Date,&lt;/div&gt;&lt;div&gt;Max Credit)&lt;/div&gt;" style="rounded=0;whiteSpace=wrap;html=1;fillColor=#0050ef;fontColor=#ffffff;strokeColor=#001DBC;" vertex="1" parent="WIyWlLk6GJQsqaUBKTNV-1">
          <mxGeometry x="500" y="880" width="140" height="60" as="geometry" />
        </mxCell>
        <mxCell id="RE7xwJCLeJIO6roD6Kax-68" value="Card Table" style="shape=note;whiteSpace=wrap;html=1;backgroundOutline=1;darkOpacity=0.05;fillColor=#0050ef;fontColor=#ffffff;strokeColor=#001DBC;" vertex="1" parent="WIyWlLk6GJQsqaUBKTNV-1">
          <mxGeometry x="690" y="850" width="80" height="100" as="geometry" />
        </mxCell>
        <mxCell id="RE7xwJCLeJIO6roD6Kax-72" value="(Student, Savings, Checking, Business)" style="shape=callout;whiteSpace=wrap;html=1;perimeter=calloutPerimeter;position2=0.67;" vertex="1" parent="WIyWlLk6GJQsqaUBKTNV-1">
          <mxGeometry x="10" y="770" width="120" height="80" as="geometry" />
        </mxCell>
        <mxCell id="RE7xwJCLeJIO6roD6Kax-78" value="LogOut" style="rounded=0;whiteSpace=wrap;html=1;" vertex="1" parent="WIyWlLk6GJQsqaUBKTNV-1">
          <mxGeometry x="185" y="840" width="120" height="60" as="geometry" />
        </mxCell>
      </root>
    </mxGraphModel>
  </diagram>
</mxfile>
